# xmcd
#
# Track frame offsets:
#	150
#	13336
#	25898
#	39512
#	50651
#	63381
#	75758
#	86324
#	100591
#	112222
#
# Disc length: 1669 seconds
#
# Revision: 0
# Processed by: cddbd v1.5.2PL0 Copyright (c) Steve Scherf et al.
# Submitted via: dBpowerAMP V4.0
#
DISCID=7306830a
DTITLE=Easter Brothers - Song of Songs
DYEAR=1900
DGENRE=Gospel
TTITLE0=I Like To Hear Them Preach It
TTITLE1=I'm On the Last Mile
TTITLE2=You Can't Judge a Book By Its Cover
TTITLE3=I'm Looking For the Man
TTITLE4=Song of Songs
TTITLE5=I've Been Washed In the Blood
TTITLE6=While On His Way to the Cross
TTITLE7=A Sinner's Trial
TTITLE8=I Traded the Whole World
TTITLE9=I Feel A Brand New Blessing
EXTD=Label:  Rushing Wind Records\nGenre:  Country Gospel\nSubmitted by Rich Price
EXTT0=
EXTT1=
EXTT2=
EXTT3=
EXTT4=
EXTT5=
EXTT6=
EXTT7=
EXTT8=
EXTT9=
PLAYORDER=
